<?xml version="1.0" encoding="iso-8859-1"?>
<!-- Generator: Adobe Illustrator 19.0.0, SVG Export Plug-In . SVG Version: 6.00 Build 0)  -->
<svg width="22px" height="22px" version="1.1" id="Layer_1" xmlns="http://www.w3.org/2000/svg" xmlns:xlink="http://www.w3.org/1999/xlink" x="0px" y="0px"
	 viewBox="0 0 512 512" style="enable-background:new 0 0 512 512;" xml:space="preserve">
<polygon style="fill:#EA971E;" points="255.999,70.803 85.699,326.831 426.301,326.831 "/>
<path style="fill:#F7DC4D;" d="M459.411,380.266H52.589c-12.333,0-23.675-6.75-29.559-17.588
	c-5.882-10.838-5.361-24.028,1.359-34.369L227.8,15.306C234.003,5.76,244.615,0,255.999,0c11.384,0,21.996,5.76,28.199,15.304
	l203.411,313.003c6.721,10.341,7.242,23.53,1.36,34.369C483.086,373.516,471.743,380.266,459.411,380.266z M114.554,313.003h282.892
	L255.999,95.35L114.554,313.003z"/>
<path style="fill:#57565C;" d="M47.357,512c-1.196,0-2.409-0.129-3.625-0.396c-9.071-1.993-14.808-10.963-12.815-20.034
	l13.072-59.478c1.695-7.712,8.527-13.206,16.423-13.206h391.173c7.896,0,14.729,5.493,16.423,13.206l13.074,59.478
	c1.993,9.07-3.743,18.04-12.814,20.034c-9.075,1.993-18.041-3.742-20.034-12.814l-10.17-46.272H73.935l-10.17,46.272
	C62.038,506.644,55.08,511.999,47.357,512z"/>
<path style="fill:#1D1D1F;" d="M468.009,432.092c-1.695-7.712-8.528-13.206-16.423-13.206H255.999v33.631h182.065l10.17,46.272
	c1.993,9.072,10.959,14.807,20.034,12.814c9.07-1.994,14.807-10.963,12.814-20.034L468.009,432.092z"/>
<polygon style="fill:#C27526;" points="426.301,326.831 255.999,70.803 255.999,326.831 "/>
<path style="fill:#EDA637;" d="M284.198,15.304C277.996,5.76,267.384,0,255.999,0v95.35l141.446,217.652H255.999v67.263h203.411
	c12.333,0,23.675-6.75,29.559-17.588c5.882-10.838,5.361-24.028-1.36-34.369L284.198,15.304z"/>
<g>
	<path style="fill:#2D2E30;" d="M272.997,279.681c0,7.369-6.289,13.838-13.659,13.838c-7.908,0-13.838-6.47-13.838-13.838
		c0-7.548,5.93-13.838,13.838-13.838C266.708,265.844,272.997,272.133,272.997,279.681z M269.582,245.536
		c0,5.572-6.11,7.908-10.423,7.908c-5.751,0-10.603-2.336-10.603-7.908c0-21.386-2.516-52.116-2.516-73.502
		c0-7.009,5.751-10.963,13.118-10.963c7.009,0,12.939,3.953,12.939,10.963C272.098,193.419,269.582,224.151,269.582,245.536z"/>
	<path style="fill:#2D2E30;" d="M158.493,345.959H97.959c-9.287,0-16.816,7.529-16.816,16.816v78.534
		c0,9.287,7.529,16.816,16.816,16.816h60.534c9.287,0,16.816-7.529,16.816-16.816v-78.534
		C175.309,353.487,167.781,345.959,158.493,345.959z"/>
</g>
<path style="fill:#1D1D1F;" d="M415.761,345.959h-60.533c-9.287,0-16.816,7.529-16.816,16.816v78.534
	c0,9.287,7.529,16.816,16.816,16.816h60.533c9.287,0,16.816-7.529,16.816-16.816v-78.534
	C432.576,353.487,425.047,345.959,415.761,345.959z"/>
<path style="fill:#57565C;" d="M128.226,345.959H97.959c-9.287,0-16.816,7.529-16.816,16.816v78.534
	c0,9.287,7.529,16.816,16.816,16.816h30.267C128.226,458.124,128.226,345.959,128.226,345.959z"/>
<path style="fill:#3E3E42;" d="M385.494,345.959h-30.267c-9.287,0-16.816,7.529-16.816,16.816v78.534
	c0,9.287,7.529,16.816,16.816,16.816h30.267V345.959z"/>
<g>
</g>
<g>
</g>
<g>
</g>
<g>
</g>
<g>
</g>
<g>
</g>
<g>
</g>
<g>
</g>
<g>
</g>
<g>
</g>
<g>
</g>
<g>
</g>
<g>
</g>
<g>
</g>
<g>
</g>
</svg>
